<svg width="35" height="35" viewBox="0 0 35 35" fill="none" xmlns="http://www.w3.org/2000/svg">
<path fill-rule="evenodd" clip-rule="evenodd" d="M0.000976562 17.5C0.000976562 7.83502 7.83599 0 17.501 0C27.166 0 35.001 7.83502 35.001 17.5C35.001 27.165 27.166 35 17.501 35C7.83599 35 0.000976562 27.165 0.000976562 17.5ZM17.5019 8.16667C14.967 8.16667 14.6489 8.17775 13.6534 8.22306C12.6597 8.26856 11.9815 8.42586 11.3881 8.65667C10.7742 8.89506 10.2535 9.21396 9.73469 9.73293C9.21552 10.2517 8.89662 10.7724 8.65745 11.3861C8.42606 11.9798 8.26856 12.6582 8.22384 13.6514C8.17931 14.647 8.16764 14.9653 8.16764 17.5001C8.16764 20.0349 8.17892 20.352 8.22403 21.3476C8.26973 22.3412 8.42703 23.0195 8.65765 23.6129C8.89623 24.2268 9.21513 24.7475 9.7341 25.2663C10.2527 25.7855 10.7734 26.1051 11.3869 26.3435C11.9807 26.5743 12.6592 26.7316 13.6526 26.7771C14.6482 26.8224 14.9661 26.8335 17.5007 26.8335C20.0357 26.8335 20.3528 26.8224 21.3484 26.7771C22.342 26.7316 23.021 26.5743 23.6149 26.3435C24.2285 26.1051 24.7485 25.7855 25.2671 25.2663C25.7862 24.7475 26.1051 24.2268 26.3443 23.6131C26.5738 23.0195 26.7313 22.341 26.7779 21.3478C26.8226 20.3522 26.8343 20.0349 26.8343 17.5001C26.8343 14.9653 26.8226 14.6472 26.7779 13.6516C26.7313 12.658 26.5738 11.9798 26.3443 11.3863C26.1051 10.7724 25.7862 10.2517 25.2671 9.73293C24.7479 9.21376 24.2287 8.89487 23.6143 8.65667C23.0193 8.42586 22.3407 8.26856 21.347 8.22306C20.3515 8.17775 20.0345 8.16667 17.4989 8.16667H17.5019Z" fill="white"/>
<path fill-rule="evenodd" clip-rule="evenodd" d="M16.6646 9.84863C16.9131 9.84824 17.1903 9.84863 17.5019 9.84863C19.9939 9.84863 20.2892 9.85757 21.2733 9.9023C22.1833 9.94391 22.6772 10.096 23.0062 10.2237C23.4418 10.3929 23.7523 10.5951 24.0788 10.9218C24.4055 11.2484 24.6077 11.5596 24.7773 11.9951C24.905 12.3237 25.0573 12.8176 25.0987 13.7276C25.1434 14.7115 25.1531 15.0071 25.1531 17.498C25.1531 19.9888 25.1434 20.2844 25.0987 21.2683C25.0571 22.1783 24.905 22.6722 24.7773 23.0008C24.6081 23.4364 24.4055 23.7465 24.0788 24.073C23.7521 24.3996 23.442 24.6019 23.0062 24.771C22.6776 24.8994 22.1833 25.051 21.2733 25.0926C20.2894 25.1374 19.9939 25.1471 17.5019 25.1471C15.0096 25.1471 14.7143 25.1374 13.7304 25.0926C12.8204 25.0506 12.3265 24.8986 11.9973 24.7708C11.5617 24.6017 11.2506 24.3994 10.9239 24.0728C10.5973 23.7461 10.395 23.4358 10.2255 23C10.0977 22.6714 9.94547 22.1775 9.90405 21.2675C9.85933 20.2836 9.85038 19.988 9.85038 17.4956C9.85038 15.0032 9.85933 14.7092 9.90405 13.7253C9.94566 12.8153 10.0977 12.3214 10.2255 11.9924C10.3946 11.5568 10.5973 11.2457 10.9239 10.9191C11.2506 10.5924 11.5617 10.3902 11.9973 10.2206C12.3263 10.0923 12.8204 9.9406 13.7304 9.8988C14.5914 9.85991 14.925 9.84824 16.6646 9.8463V9.84863ZM22.484 11.3984C21.8656 11.3984 21.3639 11.8995 21.3639 12.518C21.3639 13.1363 21.8656 13.638 22.484 13.638C23.1023 13.638 23.604 13.1363 23.604 12.518C23.604 11.8996 23.1023 11.3984 22.484 11.3984ZM17.5019 12.707C14.8549 12.707 12.7087 14.8531 12.7087 17.5001C12.7087 20.1471 14.8549 22.2922 17.5019 22.2922C20.1489 22.2922 22.2942 20.1471 22.2942 17.5001C22.2942 14.8531 20.1489 12.707 17.5019 12.707Z" fill="white"/>
<path fill-rule="evenodd" clip-rule="evenodd" d="M17.5019 14.389C19.22 14.389 20.613 15.7818 20.613 17.5001C20.613 19.2182 19.22 20.6112 17.5019 20.6112C15.7835 20.6112 14.3907 19.2182 14.3907 17.5001C14.3907 15.7818 15.7835 14.389 17.5019 14.389Z" fill="white"/>
</svg>
