<svg width="35" height="35" viewBox="0 0 35 35" fill="none" xmlns="http://www.w3.org/2000/svg">
<path fill-rule="evenodd" clip-rule="evenodd" d="M10.5525 27.2148C11.2455 27.5804 12.0174 27.7713 12.801 27.771C15.411 27.771 17.5417 25.6949 17.6379 23.1073L17.6475 0H23.4128C23.4133 0.490791 23.4589 0.980496 23.549 1.46294H19.3278V1.46374H25.0937C25.0929 3.39765 25.7939 5.26616 27.0665 6.72232L27.0682 6.72418C28.3664 7.57225 29.8838 8.02317 31.4345 8.02171V9.30577C31.9772 9.422 32.5384 9.48391 33.1155 9.48391V15.2507C30.2371 15.254 27.4307 14.3515 25.0938 12.6711V24.3883C25.0938 30.2392 20.333 35 14.4812 35C13.024 35.0004 11.5823 34.6997 10.2466 34.1169C8.9119 33.5346 7.71184 32.683 6.72136 31.6155L6.71919 31.614C3.98248 29.6925 2.18848 26.5149 2.18848 22.9253C2.18848 17.0735 6.94925 12.312 12.801 12.312C13.2795 12.3142 13.7573 12.3491 14.2311 12.4162V13.7813C14.2644 13.7807 14.2975 13.7795 14.3308 13.7784C14.3807 13.7767 14.4307 13.7749 14.4812 13.7749C14.9597 13.7772 15.4375 13.812 15.9112 13.8791V19.7654C15.4592 19.6235 14.9806 19.5409 14.4812 19.5409C13.1961 19.5424 11.9641 20.0536 11.0555 20.9624C10.1469 21.8711 9.63589 23.1032 9.63465 24.3882C9.63473 25.4032 9.95549 26.3923 10.5512 27.2141L10.5525 27.2148ZM4.56868 28.1748C5.06121 29.458 5.79625 30.6222 6.71685 31.6115C5.77751 30.6063 5.05217 29.4372 4.56868 28.1748Z" fill="white"/>
</svg>
