<svg width="35" height="35" viewBox="0 0 35 35" fill="none" xmlns="http://www.w3.org/2000/svg">
<path fill-rule="evenodd" clip-rule="evenodd" d="M0.000976562 17.5C0.000976562 7.83502 7.83599 0 17.501 0C27.166 0 35.001 7.83502 35.001 17.5C35.001 27.165 27.166 35 17.501 35C7.83599 35 0.000976562 27.165 0.000976562 17.5ZM16.9769 14.2242L17.0136 14.8298L16.4015 14.7556C14.1737 14.4714 12.2274 13.5075 10.5749 11.8886L9.76697 11.0853L9.55888 11.6785C9.1182 13.0008 9.39974 14.3972 10.3178 15.3364C10.8074 15.8555 10.6973 15.9296 9.85266 15.6207C9.55888 15.5218 9.30182 15.4477 9.27734 15.4847C9.19165 15.5712 9.48543 16.6958 9.71801 17.1407C10.0363 17.7586 10.685 18.3641 11.395 18.7225L11.9948 19.0067L11.2848 19.0191C10.5994 19.0191 10.5749 19.0315 10.6483 19.291C10.8931 20.0942 11.8602 20.9469 12.9374 21.3177L13.6963 21.5772L13.0353 21.9727C12.056 22.5411 10.9054 22.8624 9.75473 22.8871C9.20389 22.8995 8.75098 22.9489 8.75098 22.986C8.75098 23.1096 10.2444 23.8016 11.1135 24.0735C13.7208 24.8768 16.8177 24.5308 19.1435 23.159C20.796 22.1827 22.4485 20.2425 23.2197 18.3641C23.6359 17.3631 24.0521 15.5342 24.0521 14.6567C24.0521 14.0883 24.0888 14.0141 24.7743 13.3344C25.1782 12.939 25.5577 12.5065 25.6312 12.3829C25.7536 12.1481 25.7413 12.1481 25.117 12.3582C24.0766 12.7289 23.9297 12.6795 24.4438 12.1234C24.8233 11.7279 25.2762 11.0112 25.2762 10.8011C25.2762 10.764 25.0926 10.8258 24.8845 10.937C24.6641 11.0606 24.1745 11.246 23.8073 11.3572L23.1463 11.5673L22.5465 11.1594C22.216 10.937 21.7508 10.6898 21.506 10.6157C20.8817 10.4427 19.9269 10.4674 19.3638 10.6651C17.8337 11.2212 16.8667 12.6548 16.9769 14.2242Z" fill="white"/>
</svg>
